<svg xmlns="http://www.w3.org/2000/svg" xmlns:xlink="http://www.w3.org/1999/xlink" xmlns:svgjs="http://svgjs.dev/svgjs" id="stroke" viewBox="0 0 340 340" width="300" height="300"><g width="100%" height="100%" transform="matrix(1,0,0,1,0,0)"><path d="M193.911,102.425H185.1a14.413,14.413,0,0,1-13-8.076L159.575,69.02a3.5,3.5,0,0,1,6.276-3.1l12.518,25.33a7.458,7.458,0,0,0,6.726,4.177h3.524L176.255,66.357a3.5,3.5,0,0,1,6.441-2.74l14.436,33.938a3.5,3.5,0,0,1-3.221,4.87Z" fill="#ffffff" fill-opacity="1" data-original-color="#000000ff" stroke="none" stroke-opacity="1"></path><path d="M63.375,47.691a3.5,3.5,0,0,1-3.223-2.131L45.609,11.37A3.5,3.5,0,0,1,48.83,6.5h8.817a14.411,14.411,0,0,1,13,8.077l11.7,23.679a3.5,3.5,0,0,1-6.276,3.1l-11.7-23.679A7.456,7.456,0,0,0,57.647,13.5H54.122L66.594,42.82a3.5,3.5,0,0,1-3.219,4.871Z" fill="#ffffff" fill-opacity="1" data-original-color="#000000ff" stroke="none" stroke-opacity="1"></path><path d="M80.785,48.248H10a3.5,3.5,0,0,1,0-7H80.785a3.5,3.5,0,0,1,0,7Z" fill="#ffffff" fill-opacity="1" data-original-color="#000000ff" stroke="none" stroke-opacity="1"></path><path d="M90.67,67.944H10a3.5,3.5,0,0,1,0-7H90.67a3.5,3.5,0,0,1,0,7Z" fill="#ffffff" fill-opacity="1" data-original-color="#000000ff" stroke="none" stroke-opacity="1"></path><path d="M330,67.944H161.876a3.5,3.5,0,0,1,0-7H330a3.5,3.5,0,0,1,0,7Z" fill="#ffffff" fill-opacity="1" data-original-color="#000000ff" stroke="none" stroke-opacity="1"></path><path d="M330,48.248H152.254a3.5,3.5,0,0,1,0-7H330a3.5,3.5,0,0,1,0,7Z" fill="#ffffff" fill-opacity="1" data-original-color="#000000ff" stroke="none" stroke-opacity="1"></path><path d="M103.466,82.463H103.4a11.211,11.211,0,0,1-10.113-6.282L76.891,43.007a11.31,11.31,0,0,1,20.292-10l16.395,33.174a11.28,11.28,0,0,1-10.112,16.278ZM87.07,33.729a4.28,4.28,0,0,0-3.9,6.176l16.4,33.174a4.252,4.252,0,0,0,3.837,2.384h.067a4.28,4.28,0,0,0,3.837-6.177l-16.4-33.174A4.253,4.253,0,0,0,87.07,33.729Z" fill="#ffffff" fill-opacity="1" data-original-color="#000000ff" stroke="none" stroke-opacity="1"></path><path d="M155.738,82.2a11.237,11.237,0,0,1-10.179-6.282l-16.4-33.174a11.281,11.281,0,0,1,10.113-16.279h.066a11.21,11.21,0,0,1,10.113,6.283l16.4,33.173A11.281,11.281,0,0,1,155.738,82.2ZM139.276,33.462a4.281,4.281,0,0,0-3.838,6.177l16.4,33.174a4.338,4.338,0,0,0,7.54.363,4.2,4.2,0,0,0,.2-4.156L143.18,35.846a4.255,4.255,0,0,0-3.838-2.384Z" fill="#ffffff" fill-opacity="1" data-original-color="#000000ff" stroke="none" stroke-opacity="1"></path><path d="M120.89,82.463h-.067a11.211,11.211,0,0,1-10.112-6.282l-16.4-33.174a11.31,11.31,0,0,1,20.291-10L131,66.185A11.281,11.281,0,0,1,120.89,82.463Zm-16.4-48.734a4.279,4.279,0,0,0-3.9,6.176l16.4,33.174a4.255,4.255,0,0,0,3.837,2.384h.067a4.281,4.281,0,0,0,3.838-6.177l-16.4-33.174A4.254,4.254,0,0,0,104.494,33.729Z" fill="#ffffff" fill-opacity="1" data-original-color="#000000ff" stroke="none" stroke-opacity="1"></path><path d="M138.313,82.463h-.065a11.211,11.211,0,0,1-10.113-6.282l-16.4-33.174a11.31,11.31,0,0,1,20.292-10l16.4,33.174a11.281,11.281,0,0,1-10.114,16.278ZM121.918,33.729a4.28,4.28,0,0,0-3.9,6.176L134.41,73.079a4.254,4.254,0,0,0,3.838,2.384h.065a4.28,4.28,0,0,0,3.838-6.177l-16.4-33.174A4.255,4.255,0,0,0,121.918,33.729Z" fill="#ffffff" fill-opacity="1" data-original-color="#000000ff" stroke="none" stroke-opacity="1"></path><path d="M193.911,333.5H185.1a14.413,14.413,0,0,1-13-8.077l-12.751-25.8a3.5,3.5,0,0,1,6.275-3.1l12.751,25.8A7.457,7.457,0,0,0,185.1,326.5h3.524l-12.18-28.635a3.5,3.5,0,0,1,6.442-2.74l14.251,33.5a3.5,3.5,0,0,1-3.221,4.87Z" fill="#ffffff" fill-opacity="1" data-original-color="#000000ff" stroke="none" stroke-opacity="1"></path><path d="M63.332,278.664a3.5,3.5,0,0,1-3.223-2.131l-14.5-34.088a3.5,3.5,0,0,1,3.221-4.87h8.817a14.41,14.41,0,0,1,13,8.076l12.188,24.66a3.5,3.5,0,1,1-6.275,3.1l-12.188-24.66a7.457,7.457,0,0,0-6.725-4.177H54.122l12.429,29.218a3.5,3.5,0,0,1-3.219,4.871Z" fill="#ffffff" fill-opacity="1" data-original-color="#000000ff" stroke="none" stroke-opacity="1"></path><path d="M330,299.019H162.092a3.5,3.5,0,1,1,0-7H330a3.5,3.5,0,0,1,0,7Z" fill="#ffffff" fill-opacity="1" data-original-color="#000000ff" stroke="none" stroke-opacity="1"></path><path d="M330,279.322H152.6a3.5,3.5,0,0,1,0-7H330a3.5,3.5,0,0,1,0,7Z" fill="#ffffff" fill-opacity="1" data-original-color="#000000ff" stroke="none" stroke-opacity="1"></path><path d="M81.3,279.322H10a3.5,3.5,0,0,1,0-7H81.3a3.5,3.5,0,0,1,0,7Z" fill="#ffffff" fill-opacity="1" data-original-color="#000000ff" stroke="none" stroke-opacity="1"></path><path d="M90.645,299.019H10a3.5,3.5,0,0,1,0-7H90.645a3.5,3.5,0,0,1,0,7Z" fill="#ffffff" fill-opacity="1" data-original-color="#000000ff" stroke="none" stroke-opacity="1"></path><path d="M103.466,313.538H103.4a11.21,11.21,0,0,1-10.113-6.283L76.891,274.082a11.311,11.311,0,0,1,20.292-10l16.395,33.174a11.281,11.281,0,0,1-10.112,16.279ZM87.07,264.8a4.281,4.281,0,0,0-3.9,6.177l16.4,33.174a4.252,4.252,0,0,0,3.837,2.384h.067a4.28,4.28,0,0,0,3.837-6.177l-16.4-33.174A4.252,4.252,0,0,0,87.07,264.8Z" fill="#ffffff" fill-opacity="1" data-original-color="#000000ff" stroke="none" stroke-opacity="1"></path><path d="M155.738,313.271a11.237,11.237,0,0,1-10.179-6.282l-16.4-33.174a11.281,11.281,0,0,1,10.113-16.278h.066a11.211,11.211,0,0,1,10.113,6.282l16.4,33.174a11.281,11.281,0,0,1-10.113,16.278Zm-16.462-48.734a4.281,4.281,0,0,0-3.838,6.177l16.4,33.174a4.338,4.338,0,0,0,7.54.362,4.2,4.2,0,0,0,.2-4.155L143.18,266.921a4.255,4.255,0,0,0-3.838-2.384Z" fill="#ffffff" fill-opacity="1" data-original-color="#000000ff" stroke="none" stroke-opacity="1"></path><path d="M120.89,313.538h-.067a11.21,11.21,0,0,1-10.112-6.283l-16.4-33.173a11.31,11.31,0,0,1,20.291-10L131,297.259a11.281,11.281,0,0,1-10.113,16.279Zm-16.4-48.735a4.279,4.279,0,0,0-3.9,6.176l16.4,33.175a4.255,4.255,0,0,0,3.837,2.384h.067a4.281,4.281,0,0,0,3.838-6.177l-16.4-33.174A4.253,4.253,0,0,0,104.494,264.8Z" fill="#ffffff" fill-opacity="1" data-original-color="#000000ff" stroke="none" stroke-opacity="1"></path><path d="M138.313,313.538h-.065a11.21,11.21,0,0,1-10.113-6.283l-16.4-33.173a11.311,11.311,0,0,1,20.292-10l16.4,33.174a11.281,11.281,0,0,1-10.114,16.279ZM121.918,264.8a4.281,4.281,0,0,0-3.9,6.177l16.395,33.174a4.254,4.254,0,0,0,3.838,2.384h.065a4.28,4.28,0,0,0,3.838-6.177l-16.4-33.174A4.254,4.254,0,0,0,121.918,264.8Z" fill="#ffffff" fill-opacity="1" data-original-color="#000000ff" stroke="none" stroke-opacity="1"></path><path d="M282.2,163.52a3.5,3.5,0,0,1-3.218-4.871l12.594-29.612h-3.524a7.457,7.457,0,0,0-6.726,4.178l-12.518,25.329a3.5,3.5,0,0,1-6.276-3.1l12.519-25.329a14.413,14.413,0,0,1,13-8.077h8.816a3.5,3.5,0,0,1,3.221,4.87L285.42,161.389A3.5,3.5,0,0,1,282.2,163.52Z" fill="#ffffff" fill-opacity="1" data-original-color="#000000ff" stroke="none" stroke-opacity="1"></path><path d="M160.6,217.963h-8.818a3.5,3.5,0,0,1-3.221-4.87l14.552-34.212a3.5,3.5,0,0,1,6.442,2.741l-12.481,29.341H160.6a7.454,7.454,0,0,0,6.724-4.178l12.519-25.329a3.5,3.5,0,0,1,6.275,3.1L173.6,209.886A14.413,14.413,0,0,1,160.6,217.963Z" fill="#ffffff" fill-opacity="1" data-original-color="#000000ff" stroke="none" stroke-opacity="1"></path><path d="M184.284,183.215H10a3.5,3.5,0,0,1,0-7H184.284a3.5,3.5,0,0,1,0,7Z" fill="#ffffff" fill-opacity="1" data-original-color="#000000ff" stroke="none" stroke-opacity="1"></path><path d="M193.609,163.519H10a3.5,3.5,0,0,1,0-7H193.609a3.5,3.5,0,1,1,0,7Z" fill="#ffffff" fill-opacity="1" data-original-color="#000000ff" stroke="none" stroke-opacity="1"></path><path d="M330,163.519H264.846a3.5,3.5,0,0,1,0-7H330a3.5,3.5,0,0,1,0,7Z" fill="#ffffff" fill-opacity="1" data-original-color="#000000ff" stroke="none" stroke-opacity="1"></path><path d="M330,183.215H255.078a3.5,3.5,0,0,1,0-7H330a3.5,3.5,0,0,1,0,7Z" fill="#ffffff" fill-opacity="1" data-original-color="#000000ff" stroke="none" stroke-opacity="1"></path><path d="M190.024,197.734a11.28,11.28,0,0,1-10.179-16.278l16.4-33.174A11.213,11.213,0,0,1,206.354,142h.066a11.28,11.28,0,0,1,10.112,16.278l-16.4,33.174A11.211,11.211,0,0,1,190.024,197.734ZM206.354,149a4.254,4.254,0,0,0-3.838,2.383l-16.4,33.174a4.28,4.28,0,0,0,3.838,6.177,4.279,4.279,0,0,0,3.9-2.383l16.4-33.174A4.28,4.28,0,0,0,206.42,149Z" fill="#ffffff" fill-opacity="1" data-original-color="#000000ff" stroke="none" stroke-opacity="1"></path><path d="M242.3,198h-.067a11.28,11.28,0,0,1-10.113-16.278l16.4-33.174a11.31,11.31,0,0,1,20.292,10l-16.4,33.174A11.211,11.211,0,0,1,242.3,198Zm16.4-48.734a4.281,4.281,0,0,0-3.9,2.383l-16.4,33.174A4.28,4.28,0,0,0,242.23,191h.067a4.254,4.254,0,0,0,3.837-2.383l16.4-33.174a4.28,4.28,0,0,0-3.837-6.177Z" fill="#ffffff" fill-opacity="1" data-original-color="#000000ff" stroke="none" stroke-opacity="1"></path><path d="M207.448,197.734a11.28,11.28,0,0,1-10.178-16.278l16.395-33.174a11.31,11.31,0,0,1,20.292,10,3.5,3.5,0,0,1-6.275-3.1A4.281,4.281,0,0,0,223.844,149a4.282,4.282,0,0,0-3.9,2.383l-16.4,33.174a4.28,4.28,0,0,0,3.837,6.177,4.28,4.28,0,0,0,3.9-2.383l3.407-6.9a3.5,3.5,0,0,1,6.276,3.1l-3.407,6.9A11.214,11.214,0,0,1,207.448,197.734Z" fill="#ffffff" fill-opacity="1" data-original-color="#000000ff" stroke="none" stroke-opacity="1"></path><path d="M224.872,197.734a11.281,11.281,0,0,1-10.179-16.278l1.627-3.292a3.5,3.5,0,0,1,6.276,3.1l-1.627,3.291a4.28,4.28,0,0,0,3.838,6.177,4.28,4.28,0,0,0,3.9-2.383l16.395-33.174A4.28,4.28,0,0,0,241.268,149a4.282,4.282,0,0,0-3.9,2.383l-3.841,7.773a3.5,3.5,0,1,1-6.275-3.1l3.841-7.772a11.31,11.31,0,0,1,20.292,10l-16.4,33.174A11.212,11.212,0,0,1,224.872,197.734Z" fill="#ffffff" fill-opacity="1" data-original-color="#000000ff" stroke="none" stroke-opacity="1"></path><circle cx="224.943" cy="168.535" r="3.658" fill="#ffffff" fill-opacity="1" data-original-color="#000000ff" stroke="none" stroke-opacity="1"></circle></g></svg>