<svg xmlns="http://www.w3.org/2000/svg" xmlns:xlink="http://www.w3.org/1999/xlink" xmlns:svgjs="http://svgjs.dev/svgjs" id="Layer_1" viewBox="0 0 512 512" width="300" height="300"><g width="100%" height="100%" transform="matrix(1,0,0,1,0,0)"><path d="m503 390.909h-47.699c-6.44-17.4-27.828-29.805-53.145-29.805-5.317 0-10.52.542-15.531 1.614-7.645-9.992-19.557-15.989-32.375-15.989-11.551 0-22.539 4.942-30.22 13.411-4.246-.228-8.525-.099-12.718.38-3.837-11.707-14.403-21.471-29.208-26.758l2.584-88.143c1.197-13.568-7.445-25.925-20.648-29.453-.274-.073-.553-.132-.833-.175l-77.62-12.105 23.407-87.357c1.084-4.047.523-8.281-1.578-11.922-2.103-3.642-5.489-6.244-9.537-7.329l-15.529-4.161c-4.049-1.085-8.281-.522-11.923 1.579-3.229 1.865-5.635 4.742-6.896 8.191l-152.46-40.853c-2.4-.642-4.967-.134-6.94 1.381-1.973 1.514-3.131 3.86-3.131 6.347v134.743c0 3.621 2.432 6.79 5.93 7.728l118.776 31.826c-1.38 7.92 3.499 15.749 11.411 17.87l15.529 4.161c1.349.361 2.717.54 4.077.54 2.725 0 5.417-.716 7.846-2.118 3.642-2.102 6.244-5.489 7.329-9.537l1.394-5.203 54.934 14.72-1.675 50.318c-4.704-1.909-9.755-2.909-14.93-2.909-22.541 0-40.88 18.982-40.88 42.314 0 3.423.406 6.841 1.194 10.155-8.822 3.485-16.07 9.932-20.598 18.112v-70.227c0-4.418-3.582-8-8-8h-134.337c-4.418 0-8 3.582-8 8v129.983c0 4.418 3.582 8 8 8h494c4.418 0 8-3.582 8-8v-43.328c0-4.419-3.583-8.001-8-8.001zm-486-310.721 142.322 38.136-29.544 110.261-112.778-30.219zm139.516 170.374-14.986-4.016 36.95-137.902 14.986 4.016zm26.951 127.196c2.536-.361 4.747-1.915 5.944-4.18 1.198-2.265 1.239-4.966.109-7.266-1.844-3.757-2.779-7.827-2.779-12.098 0-14.51 11.161-26.314 24.88-26.314 6.27 0 12.26 2.478 16.867 6.977 2.268 2.213 5.629 2.881 8.571 1.699 2.941-1.182 4.907-3.989 5.013-7.157l2.355-70.744c.124-3.718-2.331-7.031-5.925-7.994l-61.07-16.364 3.989-14.888 78.846 12.296c5.488 1.646 9.034 6.893 8.47 12.619-.019.183-.03.367-.035.551l-2.771 94.499c-.11 3.746 2.396 7.067 6.028 7.989 14.626 3.711 24.646 12.786 24.932 22.582.069 2.4 1.214 4.642 3.116 6.106 1.902 1.465 4.364 1.996 6.7 1.451 6.369-1.488 13.273-1.874 19.969-1.113 2.885.333 5.722-.933 7.412-3.297 4.646-6.502 12.184-10.383 20.16-10.383 9.098 0 17.446 4.976 21.787 12.985 1.816 3.352 5.747 4.953 9.39 3.833 5.259-1.621 10.887-2.442 16.729-2.442 14.832 0 28.329 5.693 34.91 13.805h-272.072c3.58-6.962 10.343-11.995 18.475-13.152zm-166.467 13.151v-27.328h51.169v27.328zm67.169-27.327h51.169v27.328h-51.169zm67.169 43.327h118.338v27.328h-118.338zm134.338 0h118.338v27.328h-118.338zm-150.338-86.655v27.328h-118.338v-27.328zm-118.338 86.655h118.338v27.328h-118.338zm478 27.329h-74.985v-27.328h74.985z" fill="#ffffff" fill-opacity="1" data-original-color="#000000ff" stroke="none" stroke-opacity="1"></path></g></svg>