<svg xmlns="http://www.w3.org/2000/svg" width="300" height="300" viewBox="0 0 300 300" fill="none"><path d="M183.861 222.606H174.187V232.28H183.861V222.606Z" fill="white"></path><path d="M203.209 203.257H193.535V212.931H203.209V203.257Z" fill="white"></path><path d="M125.815 222.606H116.141V232.28H125.815V222.606Z" fill="white"></path><path d="M106.466 203.257H96.792V212.931H106.466V203.257Z" fill="white"></path><path d="M73.0898 204.708L66.3178 211.48C65.3504 212.448 64.3829 212.931 62.9318 212.931H61.4807C60.0295 212.931 59.0621 212.448 58.0947 211.48L54.2249 207.61C51.8064 204.708 48.4204 203.257 44.5506 203.257H42.6158C38.7461 203.257 34.8763 204.708 32.4578 207.61L28.588 211.48C27.6206 212.448 26.1695 212.931 25.202 212.931H19.3975V222.606H25.202C29.0718 222.606 32.4578 221.154 35.3601 218.252L39.2298 214.382C40.1972 213.415 41.6483 212.931 42.6158 212.931H44.0669C45.5181 212.931 46.4855 213.415 47.4529 214.382L51.3226 218.252C54.2249 221.154 57.6109 222.606 61.4807 222.606H62.9318C66.8015 222.606 70.6712 221.154 73.0898 218.252L79.8618 211.48L73.0898 204.708Z" fill="white"></path><path d="M276.25 204.708L270.445 211.48C269.478 212.448 268.511 212.931 267.059 212.931H265.608C264.157 212.931 263.19 212.448 262.222 211.48L258.353 207.61C254.967 204.708 251.581 203.257 247.711 203.257H246.26C242.39 203.257 238.52 204.708 236.102 207.61L232.232 211.48C231.264 212.448 230.297 212.931 228.846 212.931H222.558V222.606H228.362C232.232 222.606 236.102 221.154 238.52 218.252L242.39 214.382C243.357 213.415 244.325 212.931 245.776 212.931H247.227C248.678 212.931 249.646 213.415 250.613 214.382L254.483 218.252C257.385 221.154 260.771 222.606 264.641 222.606H266.092C269.962 222.606 273.831 221.154 276.25 218.252L283.022 211.48L276.25 204.708Z" fill="white"></path><path d="M295.115 154.885C298.017 154.885 299.952 152.951 299.952 150.048V111.351C299.952 108.449 298.017 106.514 295.115 106.514H290.278V4.93385C290.278 2.03156 288.343 0.0966968 285.441 0.0966968H237.069C234.167 0.0966968 232.232 2.03156 232.232 4.93385V106.514H227.395C224.493 106.514 222.558 108.449 222.558 111.351V125.863H212.883V19.4453C212.883 8.80357 204.177 0.0966968 193.535 0.0966968C188.698 0.0966968 184.344 2.03156 180.475 4.93385H157.74C150 -2.32188 137.908 -1.35445 130.652 6.38499C127.75 10.2547 125.815 14.6081 125.815 19.4453V125.863H116.14V111.351C116.14 108.449 114.206 106.514 111.303 106.514H106.466V92.0025C106.466 90.5514 105.982 89.584 105.015 88.6165L46.9692 30.5707L17.9463 1.54784C16.9789 0.580412 16.0114 0.0966968 14.5603 0.0966968H4.88598C1.98369 0.0966968 0.0488281 2.03156 0.0488281 4.93385V33.9567C0.0488281 35.4079 0.532543 36.3753 1.49997 37.3427L9.72313 45.5659V68.7842C1.98369 71.6865 -1.88603 79.9097 1.01626 87.1654C3.91855 94.9048 12.1417 98.7745 19.3974 95.8722C25.202 93.9374 29.0717 88.1328 29.0717 82.3282H19.3974C19.3974 85.2305 17.4626 87.1654 14.5603 87.1654C11.658 87.1654 9.72313 85.2305 9.72313 82.3282C9.72313 79.4259 11.658 77.4911 14.5603 77.4911C17.4626 77.4911 19.3974 75.5562 19.3974 72.6539V55.2402L40.1972 76.0399L58.0946 93.9374V106.514H24.2346C22.7834 106.514 21.816 106.998 20.8486 107.965L1.49997 127.314C0.532543 128.281 0.0488281 129.249 0.0488281 130.7V150.048C0.0488281 152.951 1.98369 154.885 4.88598 154.885H19.3974V168.429C17.9463 169.397 16.4951 170.364 15.044 171.815L1.49997 185.36C0.532543 186.327 0.0488281 187.294 0.0488281 188.746V295.163C0.0488281 298.065 1.98369 300 4.88598 300H295.115C298.017 300 299.952 298.065 299.952 295.163V188.746C299.952 187.294 299.468 186.327 298.501 185.36L284.957 171.815C283.506 170.364 282.055 169.397 280.603 168.429V154.885H295.115ZM9.72313 29.1196V9.771H12.6254L31.974 29.1196H9.72313ZM38.746 61.0448L16.4951 38.7939H38.746V61.0448ZM241.906 9.771H280.603V23.7987L241.906 19.929V9.771ZM241.906 29.6033L280.603 33.473V39.2776L241.906 43.1473V29.6033ZM241.906 52.8216L280.603 48.9519V62.4959L241.906 58.6262V52.8216ZM241.906 68.3005L280.603 72.1702V77.9748L241.906 81.8445V68.3005ZM241.906 91.5188L280.603 87.6491V106.514H241.906V91.5188ZM232.232 116.188H290.278V125.863H232.232V116.188ZM145.163 9.771C148.066 9.771 150.484 10.7384 152.419 13.157C153.386 14.1244 154.354 14.6081 155.805 14.6081H182.893C184.344 14.6081 185.795 14.1244 186.279 13.157C188.214 10.7384 190.633 9.771 193.535 9.771C198.856 9.771 203.209 14.1244 203.209 19.4453C203.209 24.7662 198.856 29.1196 193.535 29.1196C190.633 29.1196 188.214 28.1522 186.279 25.7336C185.312 24.7662 184.344 24.2824 182.893 24.2824H155.805C154.354 24.2824 152.903 24.7662 152.419 25.7336C150.484 28.1522 148.066 29.1196 145.163 29.1196C139.842 29.1196 135.489 24.7662 135.489 19.4453C135.489 14.1244 139.842 9.771 145.163 9.771ZM188.698 58.1425H183.86V35.8916C189.665 39.2776 197.405 39.2776 203.209 35.8916V125.863H193.535V62.9796C193.535 60.0773 191.6 58.1425 188.698 58.1425ZM154.838 77.4911V67.8168H183.86V77.4911H154.838ZM183.86 87.1654V125.863H174.186V87.1654H183.86ZM164.512 87.1654V125.863H154.838V87.1654H164.512ZM164.512 58.1425V33.9567H174.186V58.1425H164.512ZM135.489 35.8916C141.294 39.2776 149.033 39.2776 154.838 35.8916V58.1425H150C147.098 58.1425 145.163 60.0773 145.163 62.9796V125.863H135.489V35.8916ZM48.4203 45.5659L70.6712 67.8168H48.4203V45.5659ZM55.1923 77.4911H80.3455L90.0198 87.1654H64.8666L55.1923 77.4911ZM96.7918 96.8397V106.514H67.7689V96.8397H96.7918ZM26.1694 116.188H106.466V125.863H16.4951L26.1694 116.188ZM9.72313 190.68L21.816 178.587C24.7183 175.685 28.588 174.234 32.4577 174.234H35.8437C39.7134 174.234 43.5832 175.685 46.0017 178.587L54.2249 186.811C58.5783 191.164 64.8666 194.066 71.1549 194.066H74.5409C80.8292 194.066 87.1175 191.648 91.4709 186.811L99.6941 178.587C102.596 175.685 105.982 174.234 109.852 174.234H113.238C117.108 174.234 120.978 175.685 123.396 178.587L131.619 186.811C135.489 190.68 140.326 193.099 145.647 193.583V203.257H140.81C137.908 203.257 135.973 205.192 135.973 208.094V241.954H9.72313V190.68ZM29.0717 165.043V154.885H48.4203V168.429C44.5506 166.011 40.1972 164.56 35.36 164.56H32.4577C31.4903 164.56 30.5229 164.56 29.0717 165.043ZM58.0946 177.136V154.885H67.7689V183.425C64.8666 182.941 62.4481 181.49 60.5132 179.555L58.0946 177.136ZM144.68 183.322C141.994 182.764 139.732 181.38 137.908 179.555L129.684 171.332C125.331 166.978 119.043 164.076 112.754 164.076H109.368C103.08 164.076 96.7918 166.495 92.4384 171.332L84.2152 179.555C82.2804 181.49 79.8618 182.941 76.9595 183.425V154.885H144.68V183.322ZM222.074 183.322C219.388 182.764 217.127 181.38 215.302 179.555L207.079 171.332C202.725 166.978 196.437 164.076 190.149 164.076H186.763C180.475 164.076 174.186 166.495 169.833 171.332L161.61 179.555C159.675 181.49 157.256 182.941 154.354 183.425V154.885H222.074V183.322ZM154.838 212.931V222.606H145.163V212.931H154.838ZM145.163 241.954V232.28H154.838V241.954H145.163ZM153.87 251.628L150.968 266.14H149.033L146.131 251.628H153.87ZM290.278 261.303H174.186V270.977H290.278V290.326H9.72313V270.977H125.815V261.303H9.72313V251.628H136.456L140.326 271.944C140.81 274.363 142.745 275.814 145.163 275.814H154.838C157.256 275.814 159.191 274.363 159.675 271.944L163.544 251.628H290.278V261.303ZM290.278 190.68V241.954H164.512V208.094C164.512 205.192 162.577 203.257 159.675 203.257H154.838V193.099C160.158 192.615 164.996 190.197 168.865 186.327L177.088 178.104C179.991 175.201 183.377 173.75 187.247 173.75H190.633C194.502 173.75 198.372 175.201 200.791 178.104L209.014 186.327C213.367 190.68 219.655 193.583 225.944 193.583H229.33C235.618 193.583 241.906 191.164 246.26 186.327L254.483 178.104C257.385 175.201 260.771 173.75 264.641 173.75H268.027C271.897 173.75 275.766 175.201 278.185 178.104L290.278 190.68ZM232.232 183.425V154.885H241.906V177.136L239.488 179.555C237.553 181.49 235.134 182.941 232.232 183.425ZM270.445 165.005C269.627 164.894 268.754 164.56 267.543 164.56H264.157C259.804 164.56 254.967 166.012 251.097 168.43V154.886H270.445V165.005ZM9.72313 145.211V135.537H290.278V145.211H9.72313Z" fill="white"></path></svg>