<svg xmlns="http://www.w3.org/2000/svg" width="300" height="300" viewBox="0 0 300 300" fill="none"><path d="M194.27 212.575V157.207H33.6577V212.575H194.27ZM266.341 73.0069V17.6423H208.684V73.0069H266.341ZM201.477 3.22449H273.549C277.531 3.22449 280.759 6.45247 280.759 10.4352L280.763 289.565C280.763 293.548 277.535 296.776 273.552 296.776C191.184 296.776 108.815 296.776 26.4506 296.776C22.4678 296.776 19.2399 293.548 19.2399 289.565L19.2363 10.4352C19.2363 6.45247 22.4643 3.22449 26.447 3.22449H201.477ZM194.27 73.0069V17.6423H33.6542V73.0069H194.27ZM91.3113 87.4247H33.6542V142.793H91.3113V87.4247ZM266.341 87.4247C212.805 87.4247 159.265 87.4247 105.729 87.4247V142.793H266.341V87.4247ZM266.345 212.575V157.207H208.688V212.575H266.345ZM91.3148 282.358V226.993H33.6577V282.358H91.3148ZM266.345 226.993H105.729V282.358H266.345V226.993Z" fill="white"></path></svg>