<svg xmlns="http://www.w3.org/2000/svg" width="164" height="164" viewBox="0 0 164 164" fill="none"><g clip-path="url(#clip0_14_504)"><path fill-rule="evenodd" clip-rule="evenodd" d="M81.9838 129.312H75.5518C74.4958 129.312 73.6318 128.448 73.6318 127.392V100.224C73.6318 99.168 74.4958 98.304 75.5518 98.304H81.9838C83.0398 98.304 83.9038 99.168 83.9038 100.224V127.392C83.9038 128.448 83.0398 129.312 81.9838 129.312ZM77.4718 125.472H80.0638V102.144H77.4718V125.472Z" fill="white"></path><path fill-rule="evenodd" clip-rule="evenodd" d="M53.1839 157.056H46.4639C45.4079 157.056 44.5439 156.192 44.5439 155.136C44.5439 154.08 45.4079 153.216 46.4639 153.216H53.1839C54.2399 153.216 55.1039 154.08 55.1039 155.136C55.1039 156.192 54.2399 157.056 53.1839 157.056ZM54.5279 151.968C54.3359 151.968 54.2399 151.968 54.0479 151.872C52.9919 151.584 52.4159 150.624 52.7039 149.568L56.5439 135.072H53.7599L49.7279 150.528C49.4399 151.584 48.3839 152.16 47.3279 151.872C46.2719 151.584 45.6959 150.624 45.9839 149.568L50.4959 132.576C50.6879 131.808 51.4559 131.232 52.3199 131.232H59.0399C59.6159 131.232 60.1919 131.424 60.4799 131.904C60.8639 132.384 60.9599 133.056 60.8639 133.632L56.3519 150.528C56.1599 151.392 55.3919 151.968 54.5279 151.968ZM60.4799 129.312H53.8559C53.2799 129.312 52.7039 129.024 52.3199 128.64C51.9359 128.16 51.8399 127.584 51.9359 127.104L56.7359 99.84C56.9279 98.976 57.6959 98.304 58.6559 98.304H65.2799C65.8559 98.304 66.4319 98.592 66.8159 98.976C67.1999 99.456 67.2959 100.032 67.1999 100.512L62.3999 127.776C62.2079 128.64 61.4399 129.312 60.4799 129.312ZM56.0639 125.472H58.9439L63.0719 102.144H60.2879L56.0639 125.472Z" fill="white"></path><path fill-rule="evenodd" clip-rule="evenodd" d="M109.728 151.968C108.864 151.968 108.096 151.392 107.904 150.528L103.776 135.072H100.992L104.832 149.568C105.12 150.624 104.544 151.584 103.488 151.872C102.528 152.16 101.472 151.584 101.184 150.528L96.6724 133.632C96.5764 133.056 96.6724 132.384 97.0564 131.904C97.3444 131.52 97.9204 131.232 98.4964 131.232H105.216C106.08 131.232 106.848 131.808 107.136 132.576L111.552 149.568C111.84 150.624 111.264 151.584 110.208 151.872C110.016 151.968 109.92 151.968 109.728 151.968ZM103.68 129.312H97.0564C96.0964 129.312 95.3284 128.64 95.1364 127.776L90.3364 100.512C90.2404 100.032 90.3364 99.456 90.7204 98.976C91.1044 98.592 91.6804 98.304 92.1604 98.304H98.8804C99.8404 98.304 100.608 98.976 100.8 99.84L105.6 127.104C105.696 127.584 105.6 128.16 105.216 128.64C104.832 129.024 104.256 129.312 103.68 129.312ZM98.5924 125.472H101.472L97.2484 102.144H94.4644L98.5924 125.472Z" fill="white"></path><path fill-rule="evenodd" clip-rule="evenodd" d="M110.016 135.072H47.5197C44.9277 135.072 42.7197 132.864 42.7197 130.272C42.7197 127.584 44.9277 125.472 47.5197 125.472H110.016C112.608 125.472 114.816 127.584 114.816 130.272C114.816 132.864 112.608 135.072 110.016 135.072ZM47.5197 129.312C47.0397 129.312 46.5597 129.792 46.5597 130.272C46.5597 130.752 47.0397 131.232 47.5197 131.232H110.016C110.496 131.232 110.976 130.752 110.976 130.272C110.976 129.792 110.496 129.312 110.016 129.312H47.5197Z" fill="white"></path><path fill-rule="evenodd" clip-rule="evenodd" d="M124.416 163.776H33.1202C32.0642 163.776 31.2002 162.912 31.2002 161.856V155.136C31.2002 154.08 32.0642 153.216 33.1202 153.216H124.416C125.472 153.216 126.336 154.08 126.336 155.136V161.856C126.336 162.912 125.472 163.776 124.416 163.776ZM35.0402 159.936H122.496V157.056H35.0402V159.936Z" fill="white"></path><path fill-rule="evenodd" clip-rule="evenodd" d="M81.9838 157.056H75.5518C74.4958 157.056 73.6318 156.192 73.6318 155.136C73.6318 154.08 74.4958 153.216 75.5518 153.216H81.9838C83.0398 153.216 83.9038 154.08 83.9038 155.136C83.9038 156.192 83.0398 157.056 81.9838 157.056ZM81.9838 151.968C80.9278 151.968 80.0638 151.104 80.0638 150.048V135.072H77.4718V150.048C77.4718 151.104 76.6078 151.968 75.5518 151.968C74.4958 151.968 73.6318 151.104 73.6318 150.048V133.152C73.6318 132.096 74.4958 131.232 75.5518 131.232H81.9838C83.0398 131.232 83.9038 132.096 83.9038 133.152V150.048C83.9038 151.104 83.0398 151.968 81.9838 151.968Z" fill="white"></path><path fill-rule="evenodd" clip-rule="evenodd" d="M101.952 102.144H55.5841C54.5281 102.144 53.6641 101.28 53.6641 100.224V92.544C53.6641 91.488 54.5281 90.624 55.5841 90.624H101.952C103.008 90.624 103.872 91.488 103.872 92.544V100.224C103.872 101.28 103.008 102.144 101.952 102.144ZM57.5041 98.304H100.032V94.464H57.5041V98.304Z" fill="white"></path><path fill-rule="evenodd" clip-rule="evenodd" d="M91.9684 94.4641H65.5684C64.4164 94.4641 63.6484 93.6001 63.6484 92.5441V70.2721C63.6484 69.2161 64.4164 68.3521 65.5684 68.3521H91.9684C93.0244 68.3521 93.8884 69.2161 93.8884 70.2721V92.5441C93.8884 93.6001 93.0244 94.4641 91.9684 94.4641ZM67.4884 90.6241H90.0484V72.1921H67.4884V90.6241Z" fill="white"></path><path fill-rule="evenodd" clip-rule="evenodd" d="M82.4643 72.192H75.0723C74.0163 72.192 73.1523 71.328 73.1523 70.272V49.728C73.1523 48.672 74.0163 47.808 75.0723 47.808H82.4643C83.5203 47.808 84.3843 48.672 84.3843 49.728V70.272C84.3843 71.328 83.5203 72.192 82.4643 72.192ZM76.9923 68.352H80.5443V51.648H76.9923V68.352Z" fill="white"></path><path fill-rule="evenodd" clip-rule="evenodd" d="M91.5842 51.648H65.9522C64.8962 51.648 64.0322 50.784 64.0322 49.728V42.336C64.0322 41.28 64.8962 40.416 65.9522 40.416H91.5842C92.6402 40.416 93.5042 41.28 93.5042 42.336V49.728C93.5042 50.784 92.6402 51.648 91.5842 51.648ZM67.8722 47.808H89.6642V44.256H67.8722V47.808Z" fill="white"></path><path fill-rule="evenodd" clip-rule="evenodd" d="M126.433 52.224H111.841C108.385 52.224 105.601 49.44 105.601 46.08C105.601 42.624 108.385 39.84 111.841 39.84H126.433C129.889 39.84 132.673 42.624 132.673 46.08C132.673 49.44 129.889 52.224 126.433 52.224ZM111.841 43.68C110.497 43.68 109.441 44.736 109.441 46.08C109.441 47.328 110.497 48.384 111.841 48.384H126.433C127.777 48.384 128.833 47.328 128.833 46.08C128.833 44.736 127.777 43.68 126.433 43.68H111.841Z" fill="white"></path><path fill-rule="evenodd" clip-rule="evenodd" d="M115.488 52.224C114.432 52.224 113.568 51.36 113.568 50.304V41.76C113.568 40.704 114.432 39.84 115.488 39.84C116.544 39.84 117.408 40.704 117.408 41.76V50.304C117.408 51.456 116.544 52.224 115.488 52.224Z" fill="white"></path><path fill-rule="evenodd" clip-rule="evenodd" d="M122.689 52.224C121.633 52.224 120.769 51.36 120.769 50.304V41.76C120.769 40.704 121.633 39.84 122.689 39.84C123.745 39.84 124.609 40.704 124.609 41.76V50.304C124.609 51.456 123.745 52.224 122.689 52.224Z" fill="white"></path><path fill-rule="evenodd" clip-rule="evenodd" d="M86.5924 157.056H70.9444C69.8884 157.056 69.0244 156.192 69.0244 155.136V150.048C69.0244 148.992 69.8884 148.128 70.9444 148.128H86.5924C87.6484 148.128 88.5124 148.992 88.5124 150.048V155.136C88.5124 156.192 87.6484 157.056 86.5924 157.056ZM72.8644 153.216H84.6724V151.968H72.8644V153.216Z" fill="white"></path><path fill-rule="evenodd" clip-rule="evenodd" d="M114.528 157.056H111.072C110.016 157.056 109.152 156.192 109.152 155.136C109.152 154.08 110.016 153.216 111.072 153.216H112.608V151.968H100.8V155.136C100.8 156.192 99.936 157.056 98.88 157.056C97.824 157.056 96.96 156.192 96.96 155.136V150.048C96.96 148.992 97.824 148.128 98.88 148.128H114.528C115.584 148.128 116.448 148.992 116.448 150.048V155.136C116.448 156.192 115.584 157.056 114.528 157.056Z" fill="white"></path><path fill-rule="evenodd" clip-rule="evenodd" d="M58.6559 157.056H43.0079C41.9519 157.056 41.0879 156.192 41.0879 155.136V150.048C41.0879 148.992 41.9519 148.128 43.0079 148.128H58.6559C59.7119 148.128 60.5759 148.992 60.5759 150.048V155.136C60.5759 156.192 59.7119 157.056 58.6559 157.056ZM44.9279 153.216H56.7359V151.968H44.9279V153.216Z" fill="white"></path><path fill-rule="evenodd" clip-rule="evenodd" d="M107.52 48H91.5841C90.5281 48 89.6641 47.136 89.6641 46.08C89.6641 45.024 90.5281 44.16 91.5841 44.16H107.52C108.576 44.16 109.44 45.024 109.44 46.08C109.44 47.136 108.576 48 107.52 48Z" fill="white"></path><path fill-rule="evenodd" clip-rule="evenodd" d="M82.4643 44.256H75.0723C74.0163 44.256 73.1523 43.392 73.1523 42.336V29.28C73.1523 28.224 74.0163 27.36 75.0723 27.36H82.4643C83.5203 27.36 84.3843 28.224 84.3843 29.28V42.336C84.3843 43.392 83.5203 44.256 82.4643 44.256ZM76.9923 40.416H80.5443V31.2H76.9923V40.416Z" fill="white"></path><path fill-rule="evenodd" clip-rule="evenodd" d="M90.4326 31.2H67.1046C66.0486 31.2 65.1846 30.336 65.1846 29.28V1.92C65.1846 0.864 66.0486 0 67.1046 0H90.4326C91.4886 0 92.3526 0.864 92.3526 1.92V29.28C92.3526 30.336 91.4886 31.2 90.4326 31.2ZM69.0246 27.36H88.5126V3.84H69.0246V27.36Z" fill="white"></path></g><defs><clipPath id="clip0_14_504"><rect width="163.872" height="163.872" fill="white"></rect></clipPath></defs></svg>