<svg xmlns="http://www.w3.org/2000/svg" xmlns:xlink="http://www.w3.org/1999/xlink" xmlns:svgjs="http://svgjs.dev/svgjs" height="300" viewBox="0 0 520 520" width="300"><g width="100%" height="100%" transform="matrix(1,0,0,1,0,0)"><g id="_x31_060_x2C__Drill_x2C__Drilling_x2C__Water_x2C__Water_Well_Drilling"><g><path d="m480 190h-150c-5.522 0-10 4.477-10 10v163c0 25.916-21.084 47-47 47h-26c-25.916 0-47-21.084-47-47 0-69.426 0-44.292 0-163 0-5.523-4.477-10-10-10h-150c-5.523 0-10 4.477-10 10v280c0 5.522 4.477 10 10 10h440c5.522 0 10-4.478 10-10v-280c0-5.523-4.478-10-10-10zm-140 120h130v60h-130.367c.643-6.162.247-5.358.367-60zm130-100v80h-130v-80zm-420 100h130c.12 54.704-.276 53.833.367 60h-130.367zm130-100v80h-130v-80zm-130 260v-80h135.702c10.406 23.531 33.958 40 61.298 40h26c27.341 0 50.893-16.469 61.299-40h135.701v80z" fill="#ffffff" fill-opacity="1" data-original-color="#000000ff" stroke="none" stroke-opacity="1"></path><path d="m252.929 397.071c3.906 3.905 10.236 3.904 14.143 0l40-40c1.875-1.876 2.929-4.419 2.929-7.071v-310c0-5.523-4.478-10-10-10h-80c-5.523 0-10 4.477-10 10v310c0 2.652 1.054 5.195 2.929 7.071zm37.071-107.071h-60v-20h60zm-30 85.857-30-30v-35.857h60v35.857zm30-325.857v200h-60v-200z" fill="#ffffff" fill-opacity="1" data-original-color="#000000ff" stroke="none" stroke-opacity="1"></path></g></g></g></svg>